<svg width="284" height="81" viewBox="0 0 284 81" fill="none" xmlns="http://www.w3.org/2000/svg">
<path fill-rule="evenodd" clip-rule="evenodd" d="M39.8572 81C62.2247 81 80.3572 62.8675 80.3572 40.5C80.3572 18.1325 62.2247 -3.8147e-06 39.8572 -3.8147e-06V14.7857C54.0588 14.7857 65.5715 26.2984 65.5715 40.5C65.5715 54.7016 54.0588 66.2143 39.8572 66.2143V81Z" fill="#262262"/>
<circle cx="30.5358" cy="8.03571" r="6.75" fill="#27A6DD"/>
<circle cx="30.5358" cy="72.9643" r="6.75" fill="#89C23F"/>
<circle cx="15.1072" cy="17.0357" r="6.75" fill="#1C75B8"/>
<circle cx="15.1072" cy="63.9643" r="6.75" fill="#F3901E"/>
<circle cx="6.75" cy="31.8214" r="6.75" fill="#9A1F63"/>
<circle cx="6.75" cy="49.1786" r="6.75" fill="#D61C5C"/>
<path d="M107.617 30.6909C106.198 30.6909 104.938 30.97 103.837 31.5283C102.753 32.0706 101.835 32.8602 101.086 33.897C100.352 34.9337 99.7937 36.1859 99.4109 37.6533C99.0281 39.1208 98.8367 40.7716 98.8367 42.6059C98.8367 45.0783 99.1397 47.1917 99.7458 48.9463C100.368 50.6849 101.325 52.0168 102.617 52.9419C103.909 53.8511 105.576 54.3057 107.617 54.3057C109.037 54.3057 110.457 54.1462 111.876 53.8271C113.312 53.5081 114.867 53.0535 116.542 52.4634V58.6841C114.995 59.3221 113.471 59.7767 111.972 60.0478C110.473 60.335 108.79 60.4785 106.924 60.4785C103.319 60.4785 100.352 59.7368 98.0232 58.2534C95.7104 56.7541 93.9957 54.6645 92.8792 51.9849C91.7626 49.2892 91.2043 46.147 91.2043 42.5581C91.2043 39.9103 91.5632 37.4858 92.281 35.2847C92.9988 33.0835 94.0515 31.1774 95.4392 29.5664C96.8269 27.9554 98.5416 26.7113 100.583 25.834C102.625 24.9567 104.97 24.5181 107.617 24.5181C109.356 24.5181 111.095 24.7414 112.833 25.188C114.588 25.6186 116.263 26.2168 117.858 26.9824L115.465 33.0117C114.157 32.3896 112.841 31.8473 111.517 31.3848C110.193 30.9222 108.893 30.6909 107.617 30.6909ZM130.73 60H123.432V22.7715H130.73V60ZM162.719 46.5776C162.719 48.8107 162.415 50.7886 161.809 52.5112C161.219 54.2339 160.35 55.6934 159.201 56.8896C158.069 58.07 156.697 58.9632 155.086 59.5693C153.491 60.1754 151.689 60.4785 149.679 60.4785C147.797 60.4785 146.066 60.1754 144.487 59.5693C142.924 58.9632 141.56 58.07 140.396 56.8896C139.247 55.6934 138.354 54.2339 137.716 52.5112C137.094 50.7886 136.783 48.8107 136.783 46.5776C136.783 43.6108 137.309 41.0986 138.362 39.041C139.415 36.9834 140.914 35.4202 142.86 34.3516C144.806 33.2829 147.127 32.7485 149.823 32.7485C152.327 32.7485 154.544 33.2829 156.474 34.3516C158.42 35.4202 159.943 36.9834 161.044 39.041C162.16 41.0986 162.719 43.6108 162.719 46.5776ZM144.224 46.5776C144.224 48.3322 144.415 49.8076 144.798 51.0039C145.181 52.2002 145.779 53.1014 146.593 53.7075C147.406 54.3136 148.467 54.6167 149.775 54.6167C151.067 54.6167 152.111 54.3136 152.909 53.7075C153.722 53.1014 154.313 52.2002 154.679 51.0039C155.062 49.8076 155.254 48.3322 155.254 46.5776C155.254 44.8071 155.062 43.3397 154.679 42.1753C154.313 40.9949 153.722 40.1097 152.909 39.5195C152.095 38.9294 151.035 38.6343 149.727 38.6343C147.797 38.6343 146.393 39.2962 145.516 40.6201C144.655 41.944 144.224 43.9298 144.224 46.5776ZM193.296 33.251V60H187.697L186.716 56.5786H186.333C185.759 57.4878 185.041 58.2295 184.18 58.8037C183.319 59.3779 182.37 59.8006 181.333 60.0718C180.296 60.3429 179.219 60.4785 178.103 60.4785C176.189 60.4785 174.522 60.1435 173.102 59.4736C171.683 58.7878 170.574 57.727 169.777 56.2915C168.995 54.8559 168.604 52.9897 168.604 50.6929V33.251H175.902V48.8745C175.902 50.7886 176.245 52.2321 176.93 53.2051C177.616 54.1781 178.709 54.6645 180.208 54.6645C181.692 54.6645 182.856 54.3296 183.701 53.6597C184.547 52.9738 185.137 51.9769 185.472 50.6689C185.823 49.345 185.998 47.734 185.998 45.8359V33.251H193.296ZM215.02 60H207.603V31.1934H198.105V25.0205H224.519V31.1934H215.02V60ZM229.902 60V25.0205H237.319V60H229.902ZM257.584 36.8877H251.052V60H247.081V36.8877H242.439V34.9736L247.081 33.6577V31.9111C247.081 29.71 247.408 27.9235 248.062 26.5518C248.716 25.1641 249.665 24.1432 250.909 23.4893C252.153 22.8353 253.668 22.5083 255.455 22.5083C256.46 22.5083 257.377 22.596 258.206 22.7715C259.052 22.9469 259.793 23.1463 260.431 23.3696L259.403 26.5039C258.86 26.3284 258.246 26.1689 257.56 26.0254C256.89 25.8659 256.205 25.7861 255.503 25.7861C253.987 25.7861 252.863 26.2806 252.129 27.2695C251.411 28.2425 251.052 29.7738 251.052 31.8633V33.7773H257.584V36.8877ZM258.278 33.7773H262.537L268.327 48.9941C268.662 49.8874 268.973 50.7487 269.26 51.5781C269.547 52.3916 269.802 53.1732 270.026 53.9228C270.249 54.6725 270.424 55.3983 270.552 56.1001H270.719C270.943 55.3026 271.262 54.2578 271.677 52.9658C272.091 51.6579 272.538 50.326 273.016 48.9702L278.495 33.7773H282.778L271.365 63.852C270.759 65.463 270.05 66.8667 269.236 68.063C268.439 69.2593 267.466 70.1764 266.317 70.8144C265.169 71.4684 263.781 71.7954 262.154 71.7954C261.404 71.7954 260.742 71.7476 260.168 71.6518C259.594 71.5721 259.1 71.4764 258.685 71.3647V68.1826C259.036 68.2624 259.458 68.3341 259.953 68.3979C260.463 68.4617 260.99 68.4936 261.532 68.4936C262.521 68.4936 263.374 68.3022 264.092 67.9194C264.826 67.5526 265.456 67.0102 265.982 66.2925C266.509 65.5747 266.963 64.7213 267.346 63.7324L268.781 60.0478L258.278 33.7773Z" fill="#262262"/>
</svg>
